<svg width="153" height="152" viewBox="0 0 153 152" fill="none" xmlns="http://www.w3.org/2000/svg">
<path d="M27.8082 47.8233C29.2428 46.3985 31.1882 45.5981 33.2167 45.5981C35.2452 45.5981 37.1907 46.3985 38.6253 47.8233L76.4928 85.4433L114.36 47.8233C115.803 46.4389 117.735 45.6729 119.741 45.6902C121.747 45.7075 123.666 46.5068 125.084 47.9159C126.503 49.325 127.307 51.2312 127.325 53.2239C127.342 55.2166 126.571 57.1363 125.177 58.5697L81.9013 101.563C80.4667 102.988 78.5213 103.788 76.4928 103.788C74.4643 103.788 72.5188 102.988 71.0842 101.563L27.8082 58.5697C26.374 57.1445 25.5684 55.2118 25.5684 53.1965C25.5684 51.1813 26.374 49.2485 27.8082 47.8233V47.8233Z" fill="#1F2131"/>
</svg>
