<svg width="103" height="101" viewBox="0 0 103 101" fill="none" xmlns="http://www.w3.org/2000/svg">
<path d="M18.7207 31.7773C19.6865 30.8306 20.9962 30.2987 22.3618 30.2987C23.7274 30.2987 25.0371 30.8306 26.0028 31.7773L51.4953 56.7748L76.9881 31.7773C77.9589 30.8575 79.2599 30.3484 80.6105 30.3599C81.9604 30.3715 83.2524 30.9025 84.2071 31.8389C85.1618 32.7752 85.7038 34.0418 85.7154 35.3658C85.727 36.69 85.2081 37.9656 84.2702 38.918L55.1364 67.4857C54.1706 68.4325 52.8609 68.9647 51.4953 68.9647C50.1298 68.9647 48.82 68.4325 47.8543 67.4857L18.7207 38.918C17.7553 37.971 17.2129 36.6868 17.2129 35.3477C17.2129 34.0086 17.7553 32.7244 18.7207 31.7773Z" fill="#626D8A"/>
</svg>
